<?xml version="1.0" encoding="UTF-8"?>
<svg width="120px" height="120px" viewBox="0 0 120 120" version="1.1" xmlns="http://www.w3.org/2000/svg" xmlns:xlink="http://www.w3.org/1999/xlink">
    <!-- Generator: Sketch 42 (36781) - http://www.bohemiancoding.com/sketch -->
    <title>javascript_icon</title>
    <desc>Created with Sketch.</desc>
    <defs></defs>
    <g id="Page-1" stroke="none" stroke-width="1" fill="none" fill-rule="evenodd">
        <g id="javascript_icon" fill-rule="nonzero">
            <rect id="Rectangle-path" fill="#F7DF1E" x="0" y="0" width="120" height="120"></rect>
            <path d="M80.6095238,93.7504762 C83.0266667,97.6971429 86.1714286,100.598095 91.7333333,100.598095 C96.4057143,100.598095 99.3904762,98.2628571 99.3904762,95.0361905 C99.3904762,91.1695238 96.3238095,89.8 91.1809524,87.5504762 L88.3619048,86.3409524 C80.2247619,82.8742857 74.8190476,78.5314286 74.8190476,69.3504762 C74.8190476,60.8933333 81.2628571,54.4552381 91.3333333,54.4552381 C98.5028571,54.4552381 103.657143,56.9504762 107.371429,63.4838095 L98.5904762,69.1219048 C96.6571429,65.6552381 94.5714286,64.2895238 91.3333333,64.2895238 C88.0304762,64.2895238 85.9371429,66.3847619 85.9371429,69.1219048 C85.9371429,72.5047619 88.032381,73.8742857 92.8704762,75.9695238 L95.6895238,77.1771429 C105.270476,81.2857143 110.68,85.4742857 110.68,94.8914286 C110.68,105.04381 102.704762,110.605714 91.9942857,110.605714 C81.5219048,110.605714 74.7561905,105.615238 71.4457143,99.0742857 L80.6095238,93.7504762 Z M40.7752381,94.727619 C42.5466667,97.8704762 44.1580952,100.527619 48.032381,100.527619 C51.7371429,100.527619 54.0742857,99.0780952 54.0742857,93.4419048 L54.0742857,55.0990476 L65.3504762,55.0990476 L65.3504762,93.5942857 C65.3504762,105.270476 58.5047619,110.584762 48.512381,110.584762 C39.4838095,110.584762 34.2552381,105.912381 31.5961905,100.284762 L40.7752381,94.727619 Z" id="Shape" fill="#000000"></path>
        </g>
    </g>
</svg>